<svg width="1584" height="1363" viewBox="0 0 1584 1363" fill="none" xmlns="http://www.w3.org/2000/svg">
<mask id="mask0_1035_306" style="mask-type:alpha" maskUnits="userSpaceOnUse" x="0" y="0" width="1584" height="1363">
<rect x="2" y="2" width="779" height="1359" fill="#D9D9D9" stroke="black" stroke-width="4"/>
<rect x="803" y="2" width="779" height="1359" fill="#D9D9D9" stroke="black" stroke-width="4"/>
</mask>
<g mask="url(#mask0_1035_306)">
<rect x="3.5" y="3.5" width="776" height="1356" fill="#E5E5E5" stroke="black" stroke-width="7"/>
<rect x="804.5" y="3.5" width="776" height="1356" fill="#E5E5E5" stroke="black" stroke-width="7"/>
<path fill-rule="evenodd" clip-rule="evenodd" d="M1247.17 470.026L403.136 211.756L398.016 213.444L394.555 217.217L394.496 222.703L396.183 227.821L1160.3 676.403C1163.03 678.168 1165.84 679.817 1168.71 681.344L1169 681.513L1169.01 681.5C1191.66 693.442 1218.45 697.842 1245.46 692.14C1306.89 679.173 1346.18 618.861 1333.21 557.43C1325.16 519.285 1298.85 489.678 1265.36 475.818L1265.45 475.62L1262.96 474.857C1257.84 472.875 1252.57 471.256 1247.17 470.026Z" fill="black"/>
<circle cx="1218.69" cy="578.212" r="95" transform="rotate(-11.9197 1218.69 578.212)" fill="#E5E5E5"/>
<path fill-rule="evenodd" clip-rule="evenodd" d="M1302.88 588.659C1291.63 604.313 1274.73 615.979 1254.38 620.274C1211.09 629.412 1168.59 601.726 1159.45 558.436C1156.2 543.012 1157.61 527.689 1162.75 513.939C1140.69 533.487 1129.47 564.007 1135.99 594.907C1145.66 640.688 1190.6 669.966 1236.38 660.302C1272.43 652.692 1298.25 623.204 1302.88 588.659Z" fill="#30336B"/>
<path fill-rule="evenodd" clip-rule="evenodd" d="M1200.66 936.466L63.7689 308L55.8837 308.875L49.7527 313.255L48 321.138L48.8727 329.021L1012.87 1207.27C1016.25 1210.63 1019.78 1213.84 1023.43 1216.9L1023.82 1217.25L1023.84 1217.23C1052.82 1241.31 1090.06 1255.79 1130.69 1255.79C1223.09 1255.79 1298 1180.89 1298 1088.49C1298 1031.11 1269.12 980.479 1225.1 950.339L1225.29 950.083L1221.95 948.236C1215.18 943.819 1208.07 939.88 1200.66 936.466Z" fill="black"/>
<circle cx="1131" cy="1090" r="134" fill="#E5E5E5"/>
<path fill-rule="evenodd" clip-rule="evenodd" d="M1244.14 1128.94C1224.06 1147.27 1197.33 1158.45 1168 1158.45C1105.59 1158.45 1055 1107.86 1055 1045.45C1055 1023.21 1061.42 1002.48 1072.51 985C1036.37 1005.55 1012 1044.4 1012 1088.95C1012 1154.95 1065.5 1208.45 1131.5 1208.45C1183.47 1208.45 1227.69 1175.27 1244.14 1128.94Z" fill="#30336B"/>
<path fill-rule="evenodd" clip-rule="evenodd" d="M433.299 969.67L-253.847 512.818L-258.884 512.963L-262.993 515.418L-264.512 520.318L-264.368 525.353L300.339 1131.35C302.315 1133.66 304.39 1135.89 306.558 1138.02L306.772 1138.25L306.781 1138.24C323.88 1154.99 346.708 1166.09 372.427 1168.2C430.925 1172.99 482.233 1129.45 487.026 1070.96C490.003 1034.63 474.346 1001.08 448.043 979.717L448.18 979.564L446.152 978.216C442.097 975.073 437.804 972.213 433.299 969.67Z" fill="black"/>
<circle cx="382.441" cy="1061.62" r="84" transform="rotate(4.68466 382.441 1061.62)" fill="#E5E5E5"/>
<path fill-rule="evenodd" clip-rule="evenodd" d="M451.135 1091.74C437.647 1102.16 420.379 1107.78 402.052 1106.28C363.061 1103.08 334.043 1068.88 337.238 1029.89C338.376 1016 343.45 1003.38 351.273 993.022C327.643 1004.01 310.426 1027.04 308.146 1054.87C304.767 1096.1 335.454 1132.27 376.688 1135.65C409.158 1138.31 438.485 1119.84 451.135 1091.74Z" fill="#30336B"/>
</g>
<path d="M1424.68 68.8796C1428.23 59.3028 1441.77 59.3028 1445.32 68.8796L1454.31 93.1893C1455.43 96.2002 1457.8 98.5741 1460.81 99.6882L1485.12 108.684C1494.7 112.227 1494.7 125.773 1485.12 129.316L1460.81 138.312C1457.8 139.426 1455.43 141.8 1454.31 144.811L1445.32 169.12C1441.77 178.697 1428.23 178.697 1424.68 169.12L1415.69 144.811C1414.57 141.8 1412.2 139.426 1409.19 138.312L1384.88 129.316C1375.3 125.773 1375.3 112.227 1384.88 108.684L1409.19 99.6882C1412.2 98.5741 1414.57 96.2002 1415.69 93.1893L1424.68 68.8796Z" fill="black"/>
<path d="M1296.18 103.88C1299.73 94.3028 1313.27 94.3028 1316.82 103.88L1332.43 146.072C1333.54 149.083 1335.92 151.457 1338.93 152.571L1381.12 168.184C1390.7 171.727 1390.7 185.273 1381.12 188.816L1338.93 204.429C1335.92 205.543 1333.54 207.917 1332.43 210.928L1316.82 253.12C1313.27 262.697 1299.73 262.697 1296.18 253.12L1280.57 210.928C1279.46 207.917 1277.08 205.543 1274.07 204.429L1231.88 188.816C1222.3 185.273 1222.3 171.727 1231.88 168.184L1274.07 152.571C1277.08 151.457 1279.46 149.083 1280.57 146.072L1296.18 103.88Z" fill="black"/>
</svg>
